<?xml version="1.0" encoding="utf-8"?>
<!-- Generator: Adobe Illustrator 25.3.0, SVG Export Plug-In . SVG Version: 6.00 Build 0)  -->
<svg version="1.1" id="Capa_1" xmlns="http://www.w3.org/2000/svg" xmlns:xlink="http://www.w3.org/1999/xlink" x="0px" y="0px"
	 viewBox="0 0 250 250" style="enable-background:new 0 0 250 250;" xml:space="preserve">
<style type="text/css">
	.st0{fill:#F7E5D4;}
	.st1{fill:#F4D35E;}
	.st2{fill:#669933;}
	.st3{fill:#66CCCC;}
	.st4{fill:#FFCC00;}
	.st5{fill:#FFCCCC;}
	.st6{fill:#7A56FF;}
	.st7{fill:none;stroke:#C98671;stroke-miterlimit:10;}
</style>
<g>
	<g>
		<path class="st0" d="M149.8,45.53c10.78,3.51,38.28,11.98,53.44,27.88c2.61,2.74,6.1,6.43,9.29,11.62
			c14.15,22.95,8.73,44.86,6.97,52.28c-8.24,34.68-45.31,73.19-76.67,77.84c-9.16,1.36-35.53-4.01-40.66-5.81
			c9.99,1.3,17.67-0.1,23.23-1.16c28.53-5.45,62.05-26.83,70.87-61.57c5.42-21.34-0.6-39.37-3.49-47.63
			C185.96,79.4,149.8,45.53,149.8,45.53z"/>
		<path class="st1" d="M41.76,73.41c9.17-13.14,21.24-19.97,29.04-24.4c8.71-4.93,26.41-14.97,47.63-13.94
			c35.85,1.74,63.99,34.18,74.35,63.89c2.88,8.26,8.9,26.29,3.49,47.63c-8.82,34.74-42.33,56.12-70.87,61.57
			c-5.56,1.06-13.24,2.46-23.23,1.16c-34.18-4.45-61.47-36.12-69.7-68.54C31.05,135.22,22.39,101.13,41.76,73.41z"/>
	</g>
	<g>
		<path class="st2" d="M160.86,79.84l-5.36-8.04l-0.19-0.45c0.75,1.47,0.09,3.85-1.12,6.72c3.34-0.18,5.86,0.11,6.48,1.31
			L160.86,79.84z"/>
		<path class="st3" d="M58.17,159.01c2.64-9.44,13.39-14.73,16.07-21.43c3.42-8.56,0.26-15.52,2.68-22.77
			c2.01-6.03,6.13-3.56,9.37-10.71c3.35-7.37-3.22-13.82,5.36-24.11c6.7-8.04,17.41-5.36,21.43-6.7c9.65-3.22,9.82-4.98,14.73-5.36
			c8.71-0.67,15.54,5.18,18.08,6.03c4.02,1.34,13.39,2.68,15.4,6.03c2.01,3.35,0.67,8.71,1.34,14.73c0.38,3.39,2.68,8.04,3.35,11.38
			c0.45,2.26,1.67,11.94-4.69,19.42c-3.27,3.84-7.28,4.85-10.71,6.7c-8.71,4.69-7.13,9.14-12.72,15.4
			c-4.92,5.51-10.55,8.32-14.73,10.71c-27.98,15.99-17.52,24.02-40.48,35.31C82.53,193.71,58.17,159.01,58.17,159.01z"/>
		<path class="st4" d="M76.92,185.79l-24.11-34.82c2.64-9.44,13.39-14.73,16.07-21.43c3.42-8.56-0.67-14.06,1.34-21.43
			c1.91-6.99,6.19-3.54,9.37-10.71c5.36-12.05-1.88-15.16,6.7-25.45c6.7-8.04,17.41-5.36,21.43-6.7c9.65-3.22,9.82-4.98,14.73-5.36
			c8.71-0.67,15.54,5.18,18.08,6.03c4.02,1.34,13.39,2.68,15.4,6.03c2.01,3.35,0.67,8.71,1.34,14.73c0.38,3.39,2.68,8.04,3.35,11.38
			c0.45,2.26,1.67,11.94-4.69,19.42c-3.27,3.84-7.28,4.85-10.71,6.7c-8.71,4.69-7.13,9.14-12.72,15.4
			c-4.92,5.51-10.55,8.32-14.73,10.71C89.64,166.37,100.36,174.41,76.92,185.79z"/>
		<path class="st5" d="M58.17,159.01c2.64-9.44,13.39-14.73,16.07-21.43c3.42-8.56,0.26-15.52,2.68-22.77
			c2.01-6.03,6.13-3.56,9.37-10.71c3.35-7.37-3.22-13.82,5.36-24.11c6.7-8.04,17.41-5.36,21.43-6.7c9.65-3.22,9.82-4.98,14.73-5.36
			c8.71-0.67,15.54,5.18,18.08,6.03c2.63,0.88,7.55,1.75,11.2,3.19c0.08,2.78-0.21,6.04,0.18,9.53c0.38,3.39,2.68,8.04,3.35,11.38
			c0.45,2.26,1.67,11.94-4.69,19.42c-3.27,3.84-7.28,4.85-10.71,6.7c-8.71,4.69-7.13,9.14-12.72,15.4
			c-4.92,5.51-10.55,8.32-14.73,10.71c-28.12,16.07-17.41,24.11-40.85,35.49L58.17,159.01z"/>
		<g>
			<path class="st6" d="M127.94,147.59c2.6-1.36,3.91-3.62,4.11-3.97c3.69-6.54-1.22-20.97-2.2-23.87
				c-1.97-5.86,1.36-9.89-0.13-15.01c-0.36-1.25-0.7-3-4.14-5.76c-6.28-5.04-15.69-3.05-20.42-0.98c-1.68,0.73-2.49,1.35-5.27,2.44
				c-2.99,1.17-4.35,1.36-9.16,2.83c-3.92,1.2-5.88,1.8-6.62,2.29c-3.07,2.05-5.24,5.77-5.71,9.62c-0.79,6.47,3.85,11.03,5.4,12.57
				c4.14,4.12,9.6,5.45,12.58,6.18c1.96,0.48,1.69,0.22,3.2,0.65c6.22,1.77,10.1,5.97,11.54,7.73c0.85,1.03,0.57,0.86,1.16,1.52
				C115.93,147.93,122.86,150.26,127.94,147.59z"/>
			<path class="st7" d="M87.88,102.12c5.78-4.73,15.81-4.24,26.1-6.42c8.47-1.8,15.11,3.82,16.75,9.72
				c0.55,1.99-0.43,2.94,0.03,9.73c0.08,1.21,0.21,3.12,0.6,5.62c0.6,3.96,1.03,4.17,1.25,6.81c0.31,3.7-0.26,6.4-0.44,7.17
				c-0.45,1.96-0.82,3.58-2.1,5.31c-0.48,0.65-2.3,3.12-5.46,3.81c-1.99,0.44-3.56-0.04-5.4-0.63c-1.06-0.34-3.15-1.11-7.37-4.19
				c-4.29-3.13-4.21-3.85-7.18-5.56c-2.2-1.26-4.08-1.92-6.21-2.66c-4.48-1.57-5.51-1.26-7.91-2.31c-3.02-1.32-5.89-3.79-7.34-6.41
				C79.66,115.74,81.45,107.38,87.88,102.12z"/>
			<path class="st6" d="M102.47,73.81c1.44,1.44,1.63,4.07,1.07,8.18c-0.48,3.51-1.63,7.93-5.4,11.32c-1.23,1.11-2.67,2.4-4.42,2.26
				c-3.47-0.28-5.96-6.01-5.93-10.69c0.01-0.94,0.04-6.44,4.36-9.77C95.18,72.78,100.23,71.56,102.47,73.81z"/>
			<path class="st7" d="M93.56,70.83c1.54-1.05,2.65-1.42,3.73-1.23c1.31,0.23,2.1,1.22,2.51,1.68c1.66,1.86,2.17,9.51-0.88,14.34
				c-0.7,1.12-1.8,4.02-5.3,4.66c-0.59,0.11-2.4,0.44-4.05-0.47c-3.36-1.85-4.3-7.78-2.54-11.41
				C88.95,74.46,91.24,72.41,93.56,70.83z"/>
			<path class="st6" d="M132.96,67.34c1.84,3.52,0.61,8.92-0.5,11.61c-0.83,1.99-2.51,6.04-6.53,7.58c-0.8,0.31-3.09,1.18-5.24,0.23
				c-4.23-1.87-3.99-9.02-3.92-9.34c0.91-4.62,5.13-10.38,9.98-12.73C129.98,63.11,131.76,65.04,132.96,67.34z"/>
			<path class="st7" d="M119.66,64.41c1.63-1.08,4.4-2.91,7.12-1.95c2.36,0.83,3.33,3.28,3.98,4.91c2.01,5.05-0.08,9.73-0.31,10.24
				c-0.62,1.34-1.63,3.51-3.95,4.82c-3.91,2.21-9.55,0.86-11.95-2.77c-1.21-1.83-1.27-3.73-1.29-4.59
				C113.14,68.86,118.9,64.91,119.66,64.41z"/>
			<path class="st6" d="M145.1,80.69c1.23-0.51,5.47-2.24,8.78-0.09c2.08,1.35,2.78,3.56,2.98,4.23c1.1,3.65-0.65,6.99-1.82,9.23
				c-1.16,2.22-4.01,7.69-9.41,8.63c-0.78,0.14-3.43,0.56-5.9-0.96c-3.45-2.12-3.88-6.38-3.95-7.12
				C135.18,88.63,139.93,82.81,145.1,80.69z"/>
			<path class="st7" d="M147.17,77.6c-2.49-0.24-4.34,1.64-7.84,5.2c-2.48,2.53-5.06,5.22-5.36,9.1c-0.07,0.94-0.18,2.64,0.78,4.26
				c1.64,2.75,5.07,3.1,5.87,3.18c4.57,0.47,8.06-2.73,9-3.68c0.52-0.52,4.99-5.14,3.7-10.96C152.7,81.88,150.53,77.93,147.17,77.6z
				"/>
			<path class="st6" d="M149.56,112.04c1.09-0.58,2.9-1.55,5.08-1.08c3.46,0.74,4.73,4.43,4.83,4.73c1.14,3.49-0.79,6.57-1.29,7.35
				c-0.47,0.74-2.66,4.01-6.65,4.51c-0.6,0.07-4.46,0.56-6.56-2.15c-1.75-2.26-1.06-5.18-0.75-6.48
				C145.29,114.4,149.1,112.29,149.56,112.04z"/>
			<path class="st7" d="M151.13,108.61c-1.33,0.33-1.61,0.48-4.61,3.63c-3.93,4.12-4.45,4.63-4.64,5.85
				c-0.25,1.59,0.2,3.37,1.29,4.59c1.9,2.15,5.03,1.83,6.9,1.63c1.62-0.17,3.96-0.41,5.77-2.11c3.76-3.53,2.94-10.98-0.66-13.13
				C153.47,108.07,151.41,108.54,151.13,108.61z"/>
		</g>
	</g>
</g>
</svg>
