<?xml version="1.0" encoding="utf-8"?>
<!-- Generator: Adobe Illustrator 25.3.0, SVG Export Plug-In . SVG Version: 6.00 Build 0)  -->
<svg version="1.1" id="Capa_1" xmlns="http://www.w3.org/2000/svg" xmlns:xlink="http://www.w3.org/1999/xlink" x="0px" y="0px"
	 viewBox="0 0 370 250" style="enable-background:new 0 0 370 250;" xml:space="preserve">
<style type="text/css">
	.st0{fill:#FFFFFF;}
	.st1{fill:#666666;}
	.st2{fill:#66CCCC;stroke:#66CCCC;stroke-miterlimit:10;}
</style>
<g>
	<path class="st0" d="M106,207.34c-0.24,0.29-0.55,0.44-0.94,0.44c-0.1,0-0.46-0.1-1.06-0.29c-0.61-0.19-1.17-0.29-1.69-0.29
		c-1.66,0-3.55,0.09-5.66,0.26c-2.11,0.17-3.86,0.42-5.25,0.73c0.1,1.66,0.2,4.29,0.29,7.87c0.09,3.58,0.13,7.35,0.13,11.3
		c0,1.66-0.03,3.51-0.08,5.56c-0.05,2.04-0.13,3.31-0.23,3.79c-0.07,0.38-0.3,0.69-0.7,0.93c-0.4,0.24-0.81,0.36-1.22,0.36
		c-0.24,0-0.45-0.1-0.62-0.31c-0.17-0.21-0.26-0.45-0.26-0.73l0.05-1.82c0.21-2.7,0.31-6.02,0.31-9.97c0-2.84-0.03-6.08-0.1-9.74
		c-0.07-3.65-0.14-5.91-0.21-6.78c-6.93,0.76-11.55,1.47-13.87,2.13c-0.42,0.14-0.88,0.21-1.4,0.21c-0.62,0-1.23-0.22-1.82-0.67
		c-0.59-0.45-0.88-0.94-0.88-1.45c0-0.35,0.1-0.6,0.31-0.75c0.21-0.16,0.47-0.23,0.78-0.23c1.97-0.1,3.64-0.21,4.99-0.31
		c3.08-0.28,6.96-0.71,11.63-1.3c0-1.07,0.03-1.83,0.08-2.29c0.05-0.45,0.16-0.67,0.34-0.67c0.66,0,1.25,0.26,1.77,0.78
		c0.1,0.1,0.19,0.37,0.26,0.8c0.07,0.43,0.1,0.72,0.1,0.86c0.76-0.03,2.01-0.21,3.74-0.52c3.74-0.59,6.3-0.88,7.69-0.88
		c1.66,0,2.77,0.21,3.32,0.62c0.38,0.28,0.57,0.78,0.57,1.51C106.37,206.76,106.25,207.05,106,207.34z"/>
	<path class="st0" d="M111.77,206.49c-0.59,0-1.19-0.24-1.79-0.73c-0.61-0.48-0.91-0.88-0.91-1.19c0-0.38,0.18-0.74,0.55-1.09
		c0.36-0.35,0.74-0.52,1.12-0.52c0.52,0.17,0.95,0.45,1.3,0.83c0.28,0.28,0.59,0.64,0.94,1.09c0.35,0.45,0.52,0.73,0.52,0.83
		C113.48,206.23,112.91,206.49,111.77,206.49z M114.34,239.18c-0.29,0.19-0.63,0.27-1.01,0.23c-0.49-0.03-0.84-0.81-1.06-2.34
		c-0.23-1.52-0.46-4.42-0.7-8.67c-0.14-2.8-0.26-5.55-0.36-8.23c-0.1-2.68-0.17-4.75-0.21-6.21c0-0.38,0.06-0.67,0.18-0.86
		c0.12-0.19,0.35-0.29,0.7-0.29c0.8,0,1.3,0.33,1.51,0.99c0.21,0.66,0.31,1.92,0.31,3.79l-0.05,6.13c0,3.5,0.1,6.3,0.31,8.41
		c0,0.1,0.16,1.21,0.47,3.32c0.24,1.45,0.36,2.42,0.36,2.91C114.78,238.72,114.63,238.99,114.34,239.18z"/>
	<path class="st0" d="M141.37,225.76c0,0.62-0.46,1.99-1.38,4.1c-0.92,2.11-2.3,4.07-4.15,5.87c-1.85,1.8-4.13,2.7-6.83,2.7
		c-2.22,0-4.07-0.69-5.56-2.08c-1.49-1.38-2.23-3.51-2.23-6.39c0-2.7,0.62-5.38,1.87-8.02c1.25-2.65,2.87-4.81,4.88-6.49
		c2.01-1.68,4.08-2.52,6.23-2.52c1.28,0,2.36,0.29,3.25,0.86c0.88,0.57,1.32,1.39,1.32,2.47c0,1.21-0.68,2.39-2.05,3.53
		c-1.37,1.14-3.14,2.15-5.32,3.01c-2.18,0.87-4.43,1.49-6.75,1.87c-0.42,1.59-0.62,3.15-0.62,4.67c0,2.01,0.48,3.57,1.43,4.67
		c0.95,1.11,2.31,1.66,4.08,1.66c2.67,0,4.83-0.95,6.49-2.86s3.05-4.05,4.16-6.44c0.07-0.14,0.19-0.41,0.36-0.81
		c0.17-0.4,0.33-0.6,0.47-0.6C141.25,224.98,141.37,225.24,141.37,225.76z M135.58,215.52c-0.57-0.31-1.24-0.47-2-0.47
		c-1.32,0-2.58,0.43-3.79,1.3c-1.21,0.87-2.23,1.91-3.04,3.12c-0.81,1.21-1.34,2.29-1.58,3.22c1.59-0.17,3.27-0.62,5.04-1.35
		c1.77-0.73,3.25-1.52,4.44-2.39c1.19-0.86,1.79-1.58,1.79-2.13S136.15,215.83,135.58,215.52z"/>
	<path class="st0" d="M162.77,239.65c-0.35,0.29-0.76,0.44-1.25,0.44c-0.35,0-0.64-0.08-0.88-0.23c-0.24-0.16-0.36-0.37-0.36-0.65
		c0-1.42,0.1-3.62,0.31-6.6c0.21-3.19,0.31-5.83,0.31-7.95c0-2.04-0.06-3.71-0.18-5.01c-0.12-1.3-0.41-1.95-0.86-1.95
		c-1.18,0-2.47,1.46-3.87,4.39c-1.4,2.93-3,6.78-4.8,11.56l-0.78,2.08c-0.14,0.35-0.37,0.62-0.7,0.83
		c-0.33,0.21-0.67,0.31-1.01,0.31c-0.42,0-0.69-0.03-0.83-0.1c-0.14-0.07-0.23-0.28-0.26-0.62l-0.42-4.26l-0.78-7.48
		c-0.24-2.98-0.54-5.57-0.88-7.79c-0.1-0.52-0.16-0.92-0.16-1.19c0-0.52,0.22-0.94,0.68-1.27c0.45-0.33,0.97-0.49,1.56-0.49
		c0.35,0,0.6,0.83,0.75,2.49c0.16,1.66,0.32,4.35,0.49,8.05l0.21,2.75c0.28,3.5,0.43,5.71,0.47,6.65c0.1-0.21,0.2-0.44,0.29-0.7
		c0.09-0.26,0.2-0.55,0.34-0.86c1.87-4.85,3.63-8.89,5.27-12.13c1.64-3.24,3.23-4.86,4.75-4.86c1.07,0,1.81,0.91,2.21,2.73
		c0.4,1.82,0.65,4.15,0.75,6.99c0.1,3.15,0.16,7.76,0.16,13.82C163.29,239,163.12,239.35,162.77,239.65z"/>
	<path class="st0" d="M187.96,202.7c0,0.69-0.04,2.05-0.1,4.08c-0.07,2.03-0.1,4.06-0.1,6.1c0,3.95,0.09,7.97,0.26,12.08
		c0.17,4.1,0.31,6.8,0.42,8.08c0,0.21,0.02,0.43,0.05,0.67s0.07,0.47,0.1,0.67c0.14,0.97,0.21,1.56,0.21,1.77
		c0,0.35-0.25,0.67-0.75,0.99s-0.89,0.47-1.17,0.47c-0.38,0-0.63-0.15-0.75-0.44c-0.12-0.29-0.18-0.7-0.18-1.22
		c0-1.9,0.05-3.9,0.16-5.97l0.05-2.91c0-0.97-0.02-2.24-0.05-3.82c-0.04-1.58-0.09-2.9-0.16-3.97c-1.77,5.68-3.77,10.38-6,14.1
		c-2.23,3.72-4.65,5.58-7.25,5.58c-1.18,0-2.17-0.55-2.99-1.66c-0.81-1.11-1.22-2.7-1.22-4.78c0-2.74,0.93-5.71,2.78-8.93
		c1.85-3.22,3.96-5.99,6.34-8.31c2.37-2.32,4.13-3.48,5.27-3.48c1.11,0,1.66,0.36,1.66,1.09c0,0.49-0.17,1.05-0.49,1.69
		c-0.33,0.64-0.69,1.22-1.09,1.74c-0.4,0.52-0.63,0.78-0.7,0.78c-0.07,0-0.15-0.03-0.23-0.08c-0.09-0.05-0.13-0.11-0.13-0.18
		c0-0.17,0.09-0.47,0.26-0.88c0.17-0.42,0.26-0.69,0.26-0.83c0-0.17-0.02-0.29-0.05-0.36c-0.03-0.07-0.14-0.1-0.31-0.1
		c-0.73,0-2.03,1-3.92,2.99c-1.89,1.99-3.58,4.35-5.06,7.09c-1.49,2.74-2.23,5.28-2.23,7.63c0,0.83,0.17,1.61,0.52,2.34
		c0.35,0.73,0.92,1.09,1.71,1.09c2.53,0,4.87-2.14,7.04-6.41c2.16-4.28,4.04-9.13,5.64-14.57l-0.1-4.36
		c-0.1-3.84-0.16-5.89-0.16-6.13c0-2.08,0.09-3.57,0.26-4.47c0.07-0.35,0.15-0.59,0.23-0.73c0.09-0.14,0.27-0.21,0.55-0.21
		c0.35,0,0.69,0.11,1.04,0.34c0.35,0.23,0.52,0.53,0.52,0.91L187.96,202.7z"/>
	<path class="st0" d="M215.95,235.65c0.24,0.26,0.36,0.48,0.36,0.65c0,0.42-0.17,0.89-0.52,1.43c-0.35,0.54-0.69,0.8-1.04,0.8
		c-0.59,0-1.04-0.36-1.35-1.09c-0.31-0.73-0.47-1.58-0.47-2.54c0-0.83,0.05-3.32,0.16-7.48l0.05-1.97c0-0.8-0.21-1.37-0.62-1.71
		c-1.56,2.63-3.01,4.92-4.36,6.86c-1.35,1.94-3.06,3.77-5.14,5.48c-2.08,1.71-4.26,2.57-6.54,2.57c-1.11,0-1.97-0.35-2.57-1.04
		S193,236,193,234.9c0-1.38,0.62-3.28,1.87-5.69c1.25-2.41,2.84-4.85,4.78-7.32c1.94-2.47,3.88-4.51,5.82-6.1
		c1.28-1.04,2.3-1.74,3.06-2.1c0.76-0.36,1.44-0.54,2.03-0.54c0.55,0,1.12,0.17,1.71,0.52s1.09,0.83,1.51,1.45
		c0.42,0.62,0.62,1.33,0.62,2.13c0,1.07-0.29,2.1-0.88,3.06l0.88-0.26c0.38,0,0.61,0.47,0.67,1.4c0.03,0.55,0.08,1.68,0.13,3.38
		c0.05,1.7,0.09,3.1,0.13,4.21c0.03,1.14,0.07,2.25,0.1,3.32c0.03,1.07,0.07,1.92,0.1,2.54
		C215.57,235.14,215.71,235.39,215.95,235.65z M202.61,233.75c1.73-1.38,3.28-3.04,4.65-4.96c1.37-1.92,2.88-4.29,4.54-7.09
		c0.42-1.04,0.62-2.16,0.62-3.38c0-0.73-0.22-1.36-0.65-1.9c-0.43-0.54-1.01-0.8-1.74-0.8c-0.87,0-1.97,0.59-3.32,1.77
		c-1.56,1.32-3.2,3.07-4.93,5.27c-1.73,2.2-3.17,4.37-4.31,6.52c-1.14,2.15-1.71,3.84-1.71,5.09c0,1.04,0.48,1.56,1.45,1.56
		C199.07,235.83,200.87,235.14,202.61,233.75z"/>
</g>
<path class="st0" d="M285.87,141.29c2.82-2.82,10.85-5.2,12.22-4.7c0,0,4.38,31.71-11.28,46.07c-1.29,1.18-12.96,7.03-21.62,3.76
	c-16.1-6.09-8.46-43.24-3.76-45.12c3.27-1.31,10.34-1.88,14.1,2.82c0.35,0.44-9.4,29.14-0.94,27.26
	C289.53,168.05,285.4,141.76,285.87,141.29z"/>
<path class="st0" d="M337.57,155.11c3.63-2.42,0.83-14.13,6.58-16.92c3.27-1.59,7.96-0.06,9.4,2.82c0.94,1.88-0.94,2.82-3.76,18.8
	c-2.5,14.16,4.7,30.08-5.64,27.26c-6.41-1.75-9.76-13.61-14.1-22.56c-5.51-11.37-9.19-15.97-9.4-14.1c-2.82,25.38,1.88,30.08,0,32.9
	c-1.47,2.21-12.22,0-13.16-2.82c-1.88-5.64-2.04-39.48,6.58-44.18C324.41,130.66,337.57,155.11,337.57,155.11z"/>
<path class="st1" d="M239.49,68.04c5.87-8.81,67.53,8.81,79.28,8.81c4.15,0,7.63-19.98,0-35.23c-2.94-5.87-83.74-22.47-117.45,0
	c-8.81,5.87-14.68,117.45-2.94,140.93c7.8,15.61,41.3,10.97,44.04,0c2.94-11.74-15.19-40.6-5.87-49.91c2.94-2.94,41.11,0,44.04-2.94
	c7.67-7.67,8.81-23.49,2.94-29.36c-8.81-8.81-41.11,2.94-46.98-2.94C233.62,94.47,232.65,78.29,239.49,68.04z"/>
<path class="st2" d="M244.68,62.85c5.87-8.81,67.53,8.81,79.28,8.81c4.15,0,7.63-19.98,0-35.23c-2.94-5.87-83.74-22.47-117.45,0
	c-8.81,5.87-14.68,117.45-2.94,140.93c7.8,15.61,41.3,10.97,44.04,0c2.94-11.74-15.19-40.6-5.87-49.91c2.94-2.94,41.11,0,44.04-2.94
	c7.67-7.67,8.81-23.49,2.94-29.36c-8.81-8.81-41.11,2.94-46.98-2.94C238.81,89.27,237.85,73.1,244.68,62.85z"/>
<path class="st1" d="M37.94,192.59c-6.47,0-13.87-37.19-16.08-56.32c-6.66-57.7,0-91.64,0-91.64S38.85,28.47,73.5,22.56
	c34.96-5.96,99.97,6.79,103.3,54.31c2.14,30.47-14.49,46.66-39.99,57.7c-26.07,11.28-42.46,7.81-56.65,10.18
	c-3.44,0.58-6.66,2.56-6.66,12.27c0,6.47,2.96,25.96-3.23,32.34c-3.38,3.48-9.5,3.23-16.17,3.23
	C44.11,192.59,44.4,192.59,37.94,192.59z M123.49,80.26c0-11.25-10.44-20.36-23.33-20.36s-23.33,9.12-23.33,20.36
	s3.33,20.36,23.33,20.36S123.49,91.51,123.49,80.26z"/>
<path class="st0" d="M184.68,157.74c-1.91,1.27,0,8.92,0.64,9.56c2.85,2.85,7.65,0,10.19,1.27c3.32,1.66,1.27,10.19,4.46,18.48
	c0.32,0.84,8.36,0.04,8.92-1.27c1.91-4.46-2.55-18.48-1.27-19.11c3.22-1.61,7.01-1.91,7.65-3.82c1.03-3.08,0.64-8.92-1.27-9.56
	c-1.35-0.45-7.15,2.17-13.38,3.19C194.72,157.43,187.05,156.16,184.68,157.74z"/>
<path class="st2" d="M43.13,187.39c-6.47,0-13.87-37.19-16.08-56.32c-6.66-57.7,0-91.64,0-91.64S44.04,23.28,78.7,17.37
	c34.96-5.96,99.97,6.79,103.3,54.31c2.14,30.47-14.49,46.66-39.99,57.7c-26.07,11.28-42.46,7.81-56.65,10.18
	c-3.44,0.58-6.66,2.56-6.66,12.27c0,6.47,2.96,25.96-3.23,32.34c-3.38,3.48-9.5,3.23-16.17,3.23
	C49.3,187.39,49.6,187.39,43.13,187.39z M128.68,75.07c0-11.25-10.44-20.36-23.33-20.36s-23.33,9.12-23.33,20.36
	s3.33,20.36,23.33,20.36S128.68,86.31,128.68,75.07z"/>
<path class="st0" d="M95.08,186.99c5.73,1.27,25.49-0.64,26.12-3.19c0.65-2.62,1.14-4.73,0-7.01c-0.64-1.27-11.47,3.19-19.11,2.55
	c-0.3-0.32-1.27-3.47-1.27-5.73c0-0.64,8.92,1.27,10.83-1.27c0.64-1.91-0.03-4.49-0.64-5.1c-1.27-1.27-10.19,1.91-10.83,0.64
	c-0.84-1.68,0-5.1,0-6.37s10.83-1.27,17.84-0.64c0.9,0.08,1.25-6.21-1.27-7.65c-4.46-2.55-24.21,1.27-25.49,3.82
	C89.98,159.59,89.98,183.81,95.08,186.99z"/>
<path class="st0" d="M124.34,157.74c-1.91,1.27,0,8.92,0.64,9.56c2.85,2.85,7.65,0,10.19,1.27c3.32,1.66,1.27,10.19,4.46,18.48
	c0.32,0.84,8.36,0.04,8.92-1.27c1.91-4.46-2.55-18.48-1.27-19.11c3.22-1.61,7.01-1.91,7.65-3.82c1.03-3.08,0.64-8.92-1.27-9.56
	c-1.35-0.45-7.15,2.17-13.38,3.19C134.38,157.43,126.71,156.16,124.34,157.74z"/>
<path class="st0" d="M172.76,159.9c0,0,3.82,0.64,4.46,0c1.33-1.33,0.64-4.46-0.64-5.73s-15.14-3.49-16.57-0.64
	c-0.64,1.27-0.75,4.86,0.64,5.73c1.04,0.66,2.02-0.33,3.19,0c0,0-0.64,10.17-0.64,19.75c0,1.27-2.55,0-3.19,1.27
	c-0.82,1.64-0.02,4.44,1.91,6.37c1.27,1.27,14.02,0.64,14.65,0c2.27-2.27,1.76-5.39,0.64-6.37c-1.2-1.05-2.98,0.18-5.1-0.64
	C172.12,179.65,171.49,163.72,172.76,159.9z"/>
</svg>
