<?xml version="1.0" encoding="utf-8"?>
<!-- Generator: Adobe Illustrator 25.3.0, SVG Export Plug-In . SVG Version: 6.00 Build 0)  -->
<svg version="1.1" id="Capa_1" xmlns="http://www.w3.org/2000/svg" xmlns:xlink="http://www.w3.org/1999/xlink" x="0px" y="0px"
	 viewBox="0 0 1366 768" style="enable-background:new 0 0 1366 768;" xml:space="preserve">
<style type="text/css">
	.st0{fill:#FFFFFF;}
	.st1{fill:#FFCB41;}
</style>
<g>
	<g>
		<path class="st0" d="M1295.81,298.31c-26.67,5.02-64.28-0.12-64.28-41.02c0-95.58,91.98-81.36,91.98-81.36
			c-2.66-26.94-8.65-39.99,0-49.53c7.52-8.28,31.84,0,31.84,0c0,67.21-7.08,113.2,10.61,166.27c1.21,3.63-23.25,9.61-35.38,7.08
			c0,0-6.18-12.27-7.08-14.15C1323.51,285.59,1312.96,295.08,1295.81,298.31z M1309.36,243.13c-2.28-7.48-6.92-14.71-14.15-17.69
			c-17.29-7.12-29.72,2.82-24.76,17.69c3.54,10.61,7.57,13.47,14.15,17.69C1296.87,268.69,1314.51,260.04,1309.36,243.13z"/>
		<path class="st0" d="M1022.81,207.76c-3.54-14.15-31.84-24.76-60.14-3.54c-6.81,5.11-21.23-7.08-21.23-17.69
			c0-12.87,67.21-35.38,102.59-7.08c25.47,20.37,0,77.83,17.69,109.66c2.97,5.35-11.8,10.03-21.23,10.61
			c-11.01,0.68-11.8-15.67-14.15-14.15c-60.14,38.91-87.79-10.26-88.44-21.23C934.37,204.22,1022.81,207.76,1022.81,207.76z
			 M1018.57,243.23c-2.99-7.19-13.59-9.61-23.68-5.41c-10.09,4.2-15.85,13.42-12.86,20.61c2.99,7.19,13.59,9.61,23.68,5.41
			C1015.8,259.64,1021.56,250.41,1018.57,243.23z"/>
		<path class="st0" d="M1128.94,186.53c77.83-38.91,84.9,95.51,74.29,106.13c-5.33,5.33-24.67,9.67-28.3,0
			c-10.61-28.3,14.15-91.98-42.45-70.75c-0.76,0.28-11.68,21.57,3.54,67.21c3.54,10.61-26.92,11.53-38.91,3.54
			c-21.23-14.15-7.08-116.74-3.54-120.28c3.54-3.54,29.81-8.17,35.38,0C1130.19,174.22,1131.91,178.28,1128.94,186.53z"/>
	</g>
	<g>
		<path class="st1" d="M332.64,413.27c11.64-17.46,133.88,17.46,157.17,17.46c8.23,0,15.12-39.61,0-69.85
			c-5.82-11.64-166.02-44.54-232.84,0c-17.46,11.64-29.1,232.84-5.82,279.41c15.47,30.94,81.88,21.74,87.31,0
			c5.82-23.28-30.11-80.48-11.64-98.96c5.82-5.82,81.49,0,87.31-5.82c15.22-15.22,17.46-46.57,5.82-58.21
			c-17.46-17.46-81.49,5.82-93.14-5.82C321,465.66,319.09,433.6,332.64,413.27z"/>
		<path class="st1" d="M722.65,372.52c17.46-17.46,67.16-32.2,75.67-29.1c0,0,27.11,196.32-69.85,285.23
			c-7.99,7.32-80.27,43.56-133.88,23.28c-99.68-37.69-52.39-267.76-23.28-279.41c20.24-8.1,64.03-11.64,87.31,17.46
			c2.2,2.75-58.21,180.45-5.82,168.81C745.3,538.24,719.75,375.42,722.65,372.52z"/>
		<path class="st1" d="M1042.8,465.66c22.49-14.99,5.17-87.48,40.75-104.78c20.24-9.84,49.29-0.37,58.21,17.46
			c5.82,11.64-5.82,17.46-23.28,116.42c-15.47,87.69,29.1,186.27-34.93,168.81c-39.71-10.83-60.45-84.3-87.31-139.7
			c-34.14-70.41-56.92-98.89-58.21-87.31c-17.46,157.17,11.64,186.27,0,203.73c-9.13,13.7-75.67,0-81.49-17.46
			c-11.64-34.93-12.64-244.47,40.75-273.59C961.31,314.31,1042.8,465.66,1042.8,465.66z"/>
	</g>
	<g>
		<path class="st0" d="M718.09,134.87c-10.61,7.08,0,49.53,3.54,53.06c15.83,15.83,42.45,0,56.6,7.08
			c18.45,9.22,7.08,56.6,24.76,102.59c1.8,4.67,46.41,0.2,49.53-7.08c10.61-24.76-14.15-102.59-7.08-106.13
			c17.85-8.93,38.91-10.61,42.45-21.23c5.7-17.1,3.54-49.53-7.08-53.06c-7.5-2.5-39.7,12.04-74.29,17.69
			C773.86,133.13,731.26,126.09,718.09,134.87z"/>
		<path class="st0" d="M20.74,300.2c-7.08,0-15.18-40.69-17.59-61.61c-7.29-63.12,0-100.25,0-100.25s18.59-17.67,56.5-24.13
			c38.25-6.52,109.36,7.43,113,59.41c2.34,33.33-15.85,51.04-43.74,63.12c-28.52,12.34-46.44,8.54-61.97,11.14
			c-3.77,0.63-7.29,2.81-7.29,13.42c0,7.07,3.24,28.4-3.54,35.38c-3.7,3.81-10.39,3.54-17.68,3.54
			C27.5,300.2,27.82,300.2,20.74,300.2z M114.33,177.32c0-12.3-11.42-22.28-25.52-22.28s-25.52,9.97-25.52,22.28
			c0,12.3,3.65,22.28,25.52,22.28S114.33,189.63,114.33,177.32z"/>
		<path class="st0" d="M220.62,294.9c31.84,7.08,141.5-3.54,145.04-17.69c3.64-14.55,6.33-26.25,0-38.91
			c-3.54-7.08-63.68,17.69-106.13,14.15c-1.64-1.79-7.08-19.25-7.08-31.84c0-3.54,49.53,7.08,60.14-7.08
			c3.54-10.61-0.15-24.91-3.54-28.3c-7.08-7.08-56.6,10.61-60.14,3.54c-4.67-9.35,0-28.3,0-35.38s60.14-7.08,99.05-3.54
			c4.98,0.45,6.92-34.45-7.08-42.45c-24.76-14.15-134.43,7.08-141.5,21.23C192.32,142.78,192.32,277.21,220.62,294.9z"/>
		<path class="st0" d="M397.5,135.7c-10.61,7.08,0,49.53,3.54,53.06c15.83,15.83,42.45,0,56.6,7.08
			c18.45,9.22,7.08,56.6,24.76,102.59c1.8,4.67,46.41,0.2,49.53-7.08c10.61-24.76-14.15-102.59-7.08-106.13
			c17.85-8.93,38.91-10.61,42.45-21.23c5.7-17.1,3.54-49.53-7.08-53.06c-7.5-2.5-39.7,12.04-74.29,17.69
			C453.26,133.96,410.66,126.93,397.5,135.7z"/>
		<path class="st0" d="M666.36,144.8c0,0,21.23,3.54,24.76,0c7.41-7.41,3.54-24.76-3.54-31.84c-7.08-7.08-84.07-19.36-91.98-3.54
			c-3.54,7.08-4.15,26.96,3.54,31.84c5.8,3.68,11.24-1.85,17.69,0c0,0-3.54,56.48-3.54,109.66c0,7.08-14.15,0-17.69,7.08
			c-4.55,9.11-0.09,24.68,10.61,35.38c7.08,7.08,77.83,3.54,81.36,0c12.6-12.6,9.76-29.94,3.54-35.38c-6.65-5.81-16.52,1-28.3-3.54
			C662.83,254.46,659.29,166.02,666.36,144.8z"/>
	</g>
</g>
</svg>
