<svg id="Capa_1" data-name="Capa 1" xmlns="http://www.w3.org/2000/svg" viewBox="0 0 2274.86 456.45"><defs><style>.cls-1{fill:#ffcb41;}.cls-2{fill:#fff;}</style></defs><path class="cls-1" d="M1769.53,237c10.87-16.3,125,16.3,146.7,16.3,7.68,0,14.11-37,0-65.2-5.43-10.87-155-41.58-217.33,0-16.3,10.86-27.17,217.33-5.43,260.79,14.44,28.89,76.42,20.3,81.5,0,5.43-21.73-28.11-75.12-10.87-92.36,5.43-5.43,76.06,0,81.5-5.43,14.2-14.21,16.3-43.47,5.43-54.34-16.3-16.3-76.06,5.44-86.93-5.43C1758.67,285.94,1756.88,256,1769.53,237Z" transform="translate(-251.31 -162)"/><path class="cls-1" d="M2133.56,199c16.3-16.3,62.68-30.05,70.63-27.16,0,0,25.31,183.24-65.2,266.23-7.45,6.83-74.92,40.65-125,21.73-93-35.18-48.9-249.93-21.74-260.8,18.89-7.55,59.77-10.86,81.5,16.3,2.05,2.57-54.33,168.43-5.43,157.57C2154.7,353.68,2130.85,201.71,2133.56,199Z" transform="translate(-251.31 -162)"/><path class="cls-1" d="M2432.39,285.94c21-14,4.82-81.65,38-97.8,18.9-9.19,46-.35,54.33,16.3,5.44,10.86-5.43,16.3-21.73,108.66-14.44,81.85,27.17,173.87-32.6,157.57-37.07-10.11-56.43-78.69-81.5-130.4-31.86-65.72-53.13-92.3-54.33-81.5-16.3,146.7,10.87,173.86,0,190.16-8.53,12.79-70.63,0-76.07-16.3-10.86-32.6-11.79-228.18,38-255.36C2356.32,144.67,2432.39,285.94,2432.39,285.94Z" transform="translate(-251.31 -162)"/><path class="cls-2" d="M1374.16,213.85c-16.59,11.06,0,77.43,5.53,83,24.75,24.75,66.37,0,88.49,11.06,28.85,14.43,11.07,88.5,38.72,160.4,2.81,7.3,72.56.3,77.43-11.06,16.59-38.72-22.12-160.4-11.06-165.93,27.91-14,60.84-16.59,66.37-33.19,8.91-26.74,5.53-77.43-11.06-83-11.73-3.91-62.07,18.83-116.15,27.66C1461.34,211.12,1394.74,200.13,1374.16,213.85Z" transform="translate(-251.31 -162)"/><path class="cls-2" d="M283.88,472.34c-11.06,0-23.73-63.62-27.51-96.33-11.39-98.69,0-156.74,0-156.74s29.07-27.63,88.34-37.73c59.8-10.2,171,11.61,176.68,92.88,3.66,52.11-24.78,79.8-68.39,98.68-44.59,19.3-72.62,13.36-96.89,17.42-5.89,1-11.39,4.38-11.4,21,0,11.06,5.07,44.4-5.53,55.31-5.78,5.95-16.25,5.53-27.65,5.53ZM430.2,280.22c0-19.23-17.86-34.83-39.89-34.83s-39.9,15.6-39.9,34.83,5.7,34.83,39.9,34.83S430.2,299.46,430.2,280.22Z" transform="translate(-251.31 -162)"/><path class="cls-2" d="M596.37,464c49.78,11.06,221.24-5.53,226.77-27.65,5.68-22.74,9.9-41,0-60.84-5.53-11.06-99.56,27.65-165.93,22.12-2.56-2.79-11.06-30.1-11.06-49.78,0-5.53,77.43,11.06,94-11.06,5.53-16.59-.23-38.95-5.53-44.25-11.07-11.06-88.5,16.6-94,5.53-7.31-14.61,0-44.24,0-55.3s94-11.07,154.87-5.54c7.79.71,10.82-53.86-11.07-66.37C745.71,148.78,574.25,182,563.19,204.09S552.13,436.39,596.37,464Z" transform="translate(-251.31 -162)"/><path class="cls-2" d="M872.92,215.15c-16.59,11.06,0,77.43,5.53,83,24.75,24.75,66.37,0,88.49,11.07,28.85,14.42,11.06,88.49,38.72,160.39,2.81,7.3,72.56.31,77.43-11.06,16.59-38.72-22.12-160.4-11.06-165.93,27.91-13.95,60.84-16.59,66.37-33.18,8.91-26.74,5.53-77.43-11.06-83-11.73-3.92-62.07,18.83-116.15,27.65C960.1,212.43,893.5,201.43,872.92,215.15Z" transform="translate(-251.31 -162)"/><path class="cls-2" d="M1293.28,229.37s33.19,5.53,38.72,0c11.58-11.58,5.53-38.72-5.53-49.78s-131.44-30.26-143.81-5.53c-5.53,11.06-6.48,42.15,5.54,49.78,9.07,5.76,17.57-2.9,27.65,0,0,0-5.53,88.31-5.53,171.46,0,11.06-22.12,0-27.66,11.06-7.12,14.24-.13,38.58,16.6,55.31,11.06,11.06,121.68,5.53,127.21,0,19.7-19.7,15.26-46.81,5.53-55.31-10.4-9.09-25.83,1.56-44.25-5.53C1287.75,400.83,1282.22,262.55,1293.28,229.37Z" transform="translate(-251.31 -162)"/><path class="cls-2" d="M1799.47,616.42c-26.67,5-64.28-.12-64.28-41,0-95.58,92-81.36,92-81.36-2.66-26.94-8.65-40,0-49.53,7.51-8.28,31.84,0,31.84,0,0,67.22-7.08,113.21,10.61,166.27,1.21,3.63-23.25,9.61-35.38,7.08,0,0-6.18-12.27-7.07-14.15A61.74,61.74,0,0,1,1799.47,616.42ZM1813,561.24c-2.28-7.47-6.92-14.71-14.15-17.68-17.29-7.12-29.72,2.82-24.76,17.68,3.53,10.62,7.56,13.48,14.15,17.69C1800.53,586.8,1818.17,578.15,1813,561.24Z" transform="translate(-251.31 -162)"/><path class="cls-2" d="M1526.47,525.87c-3.53-14.15-31.83-24.76-60.13-3.54-6.81,5.11-21.23-7.07-21.23-17.69,0-12.87,67.21-35.37,102.59-7.07,25.47,20.37,0,77.82,17.69,109.66,3,5.35-11.8,10-21.23,10.62-11,.67-11.8-15.68-14.15-14.15-60.14,38.91-87.79-10.27-88.44-21.23C1438,522.33,1526.47,525.87,1526.47,525.87Zm-4.23,35.47c-3-7.19-13.59-9.61-23.69-5.41s-15.85,13.42-12.86,20.61,13.59,9.6,23.68,5.41S1525.23,568.52,1522.24,561.34Z" transform="translate(-251.31 -162)"/><path class="cls-2" d="M1632.6,504.64c77.83-38.91,84.9,95.52,74.29,106.13-5.33,5.33-24.67,9.67-28.3,0-10.61-28.3,14.15-92-42.45-70.75-.76.28-11.68,21.57,3.54,67.21,3.53,10.62-26.93,11.53-38.92,3.54-21.22-14.15-7.07-116.74-3.53-120.28s29.81-8.17,35.37,0C1633.85,492.33,1635.57,496.39,1632.6,504.64Z" transform="translate(-251.31 -162)"/></svg>